<svg width="15" height="15" viewBox="0 0 15 15" fill="none" xmlns="http://www.w3.org/2000/svg">
<path fill-rule="evenodd" clip-rule="evenodd" d="M13.5264 6.49999H13.7768C14.3028 6.51008 14.7659 6.84866 14.9343 7.34627C15.1027 7.84388 14.9402 8.39347 14.5281 8.71997V10.22C14.5235 11.609 13.6457 12.8455 12.3343 13.3099L12.9404 14.2249C13.0912 14.4544 13.0287 14.7624 12.8001 14.9149C12.7195 14.9713 12.6231 15.0011 12.5247 14.9999C12.3571 14.9991 12.2011 14.9146 12.109 14.7749L11.2525 13.4999H3.77988L2.92343 14.7749C2.83128 14.9146 2.67527 14.9991 2.50773 14.9999C2.40926 15.0011 2.31292 14.9713 2.23226 14.9149C2.00374 14.7624 1.94114 14.4544 2.09202 14.2249L2.69805 13.3349C1.38672 12.8705 0.508849 11.634 0.504337 10.245V8.74497C0.0709225 8.42411 -0.10663 7.86137 0.0643441 7.35046C0.235318 6.83955 0.716034 6.49635 1.25561 6.49999H12.5247V1.55001C12.5219 1.24739 12.2769 1.00273 11.9737 1.00002H10.7216C10.611 1.00002 10.5213 1.08956 10.5213 1.20001V1.57001C11.4035 1.7974 12.0209 2.59043 12.0238 3.5V4C12.0238 4.27614 11.7996 4.5 11.523 4.5H8.51789C8.24128 4.5 8.01704 4.27614 8.01704 4V3.5C8.02 2.59043 8.63739 1.7974 9.51958 1.57001V1.20001C9.51824 0.881349 9.64446 0.575349 9.87017 0.350016C10.0959 0.124683 10.4024 -0.00131527 10.7216 2.08745e-05H11.9737C12.8312 2.08745e-05 13.5264 0.693976 13.5264 1.55001V6.49999ZM10.0204 2.50001C9.46721 2.50001 9.01874 2.94772 9.01874 3.5H11.0221C11.0221 2.94772 10.5737 2.50001 10.0204 2.50001ZM1.25561 7.49998H13.7768C13.9151 7.49998 14.0272 7.61191 14.0272 7.74998C14.0272 7.88805 13.9151 7.99998 13.7768 7.99998H1.25561C1.1173 7.99998 1.00518 7.88805 1.00518 7.74998C1.00518 7.61191 1.1173 7.49998 1.25561 7.49998ZM11.2425 12.5C12.5027 12.4972 13.5236 11.478 13.5264 10.22V8.99997H1.50603V10.22C1.50879 11.478 2.52969 12.4972 3.78989 12.5H11.2425Z" fill="#F89812"/>
</svg>
