<svg width="15" height="15" viewBox="0 0 15 15" fill="none" xmlns="http://www.w3.org/2000/svg">
<path fill-rule="evenodd" clip-rule="evenodd" d="M13.9286 6.96429H14.4643C14.7602 6.96429 15 7.20413 15 7.5V12.3214C15 12.6173 14.7602 12.8571 14.4643 12.8571H13.9286V14.4643C13.9286 14.7602 13.6887 15 13.3929 15H11.25C10.9541 15 10.7143 14.7602 10.7143 14.4643V12.8571H4.28571V14.4643C4.28571 14.7602 4.04587 15 3.75 15H1.60714C1.31128 15 1.07143 14.7602 1.07143 14.4643V12.8571H0.535714C0.239847 12.8571 0 12.6173 0 12.3214V7.5C0 7.20413 0.239847 6.96429 0.535714 6.96429H1.07143V1.575C1.07143 0.705152 1.77658 0 2.64643 0H12.3536C13.2234 0 13.9286 0.705152 13.9286 1.575V6.96429ZM2.64643 1.07143C2.36831 1.07143 2.14286 1.29689 2.14286 1.575V6.96429H2.94643V4.75714C2.94643 4.46128 3.18628 4.22143 3.48214 4.22143H11.5179C11.8137 4.22143 12.0536 4.46128 12.0536 4.75714V6.96429H12.8571V1.575C12.8571 1.29689 12.6317 1.07143 12.3536 1.07143H2.64643ZM4.01786 6.96429V5.29286H6.96429V6.96429H4.01786ZM10.9821 5.29286H8.03571V6.96429H10.9821V5.29286ZM1.60714 8.03571H13.9286V8.90893H1.07143V8.03571H1.60714ZM2.14286 13.9286H3.21429V12.8571H2.14286V13.9286ZM12.8571 13.9286H11.7857V12.8571H12.8571V13.9286ZM1.07143 9.98036V11.7857H13.9286V9.98036H1.07143Z" fill="#F89812"/>
</svg>
