<svg width="14" height="15" viewBox="0 0 14 15" fill="none" xmlns="http://www.w3.org/2000/svg">
<path fill-rule="evenodd" clip-rule="evenodd" d="M13 3.16667C13 3.46582 12.7575 3.70833 12.4583 3.70833H11.9167V11.2917H12.4583C12.7575 11.2917 13 11.5342 13 11.8333V13.4583C13 13.7575 12.7575 14 12.4583 14H10.8333C10.5342 14 10.2917 13.7575 10.2917 13.4583V12.9167H2.70833V13.4583C2.70833 13.7575 2.46582 14 2.16667 14H0.541667C0.242512 14 0 13.7575 0 13.4583V11.8333C0 11.5342 0.242512 11.2917 0.541667 11.2917H1.08333V3.70833H0.541667C0.242512 3.70833 0 3.46582 0 3.16667V1.54167C0 1.24251 0.242512 1 0.541667 1H2.16667C2.46582 1 2.70833 1.24251 2.70833 1.54167V2.08333H10.2917V1.54167C10.2917 1.24251 10.5342 1 10.8333 1H12.4583C12.7575 1 13 1.24251 13 1.54167V3.16667ZM0.541667 1.54167V3.16667H2.16667V1.54167H0.541667ZM2.16667 13.4583H0.541667V11.8333H2.16667V13.4583ZM10.2917 12.375V11.8333C10.2917 11.5342 10.5342 11.2917 10.8333 11.2917H11.375V3.70833H10.8333C10.5342 3.70833 10.2917 3.46582 10.2917 3.16667V2.625H2.70833V3.16667C2.70833 3.46582 2.46582 3.70833 2.16667 3.70833H1.625V11.2917H2.16667C2.46582 11.2917 2.70833 11.5342 2.70833 11.8333V12.375H10.2917ZM12.4583 11.8333V13.4583H10.8333V11.8333H12.4583ZM10.8333 1.54167V3.16667H12.4583V1.54167H10.8333Z" fill="#F89812"/>
<path d="M11.9167 3.70833V3.50833H11.7167V3.70833H11.9167ZM11.9167 11.2917H11.7167V11.4917H11.9167V11.2917ZM10.2917 12.9167H10.4917V12.7167H10.2917V12.9167ZM2.70833 12.9167V12.7167H2.50833V12.9167H2.70833ZM1.08333 11.2917V11.4917H1.28333V11.2917H1.08333ZM1.08333 3.70833H1.28333V3.50833H1.08333V3.70833ZM2.70833 2.08333H2.50833V2.28333H2.70833V2.08333ZM10.2917 2.08333V2.28333H10.4917V2.08333H10.2917ZM0.541667 3.16667H0.341667V3.36667H0.541667V3.16667ZM0.541667 1.54167V1.34167H0.341667V1.54167H0.541667ZM2.16667 3.16667V3.36667H2.36667V3.16667H2.16667ZM2.16667 1.54167H2.36667V1.34167H2.16667V1.54167ZM0.541667 13.4583H0.341667V13.6583H0.541667V13.4583ZM2.16667 13.4583V13.6583H2.36667V13.4583H2.16667ZM0.541667 11.8333V11.6333H0.341667V11.8333H0.541667ZM2.16667 11.8333H2.36667V11.6333H2.16667V11.8333ZM10.2917 12.375V12.575H10.4917V12.375H10.2917ZM11.375 11.2917V11.4917H11.575V11.2917H11.375ZM11.375 3.70833H11.575V3.50833H11.375V3.70833ZM10.2917 2.625H10.4917V2.425H10.2917V2.625ZM2.70833 2.625V2.425H2.50833V2.625H2.70833ZM1.625 3.70833V3.50833H1.425V3.70833H1.625ZM1.625 11.2917H1.425V11.4917H1.625V11.2917ZM2.70833 12.375H2.50833V12.575H2.70833V12.375ZM12.4583 13.4583V13.6583H12.6583V13.4583H12.4583ZM12.4583 11.8333H12.6583V11.6333H12.4583V11.8333ZM10.8333 13.4583H10.6333V13.6583H10.8333V13.4583ZM10.8333 11.8333V11.6333H10.6333V11.8333H10.8333ZM10.8333 3.16667H10.6333V3.36667H10.8333V3.16667ZM10.8333 1.54167V1.34167H10.6333V1.54167H10.8333ZM12.4583 3.16667V3.36667H12.6583V3.16667H12.4583ZM12.4583 1.54167H12.6583V1.34167H12.4583V1.54167ZM12.4583 3.90833C12.8679 3.90833 13.2 3.57628 13.2 3.16667H12.8C12.8 3.35536 12.647 3.50833 12.4583 3.50833V3.90833ZM11.9167 3.90833H12.4583V3.50833H11.9167V3.90833ZM12.1167 11.2917V3.70833H11.7167V11.2917H12.1167ZM12.4583 11.0917H11.9167V11.4917H12.4583V11.0917ZM13.2 11.8333C13.2 11.4237 12.8679 11.0917 12.4583 11.0917V11.4917C12.647 11.4917 12.8 11.6446 12.8 11.8333H13.2ZM13.2 13.4583V11.8333H12.8V13.4583H13.2ZM12.4583 14.2C12.8679 14.2 13.2 13.8679 13.2 13.4583H12.8C12.8 13.647 12.647 13.8 12.4583 13.8V14.2ZM10.8333 14.2H12.4583V13.8H10.8333V14.2ZM10.0917 13.4583C10.0917 13.8679 10.4237 14.2 10.8333 14.2V13.8C10.6446 13.8 10.4917 13.647 10.4917 13.4583H10.0917ZM10.0917 12.9167V13.4583H10.4917V12.9167H10.0917ZM2.70833 13.1167H10.2917V12.7167H2.70833V13.1167ZM2.90833 13.4583V12.9167H2.50833V13.4583H2.90833ZM2.16667 14.2C2.57628 14.2 2.90833 13.8679 2.90833 13.4583H2.50833C2.50833 13.647 2.35536 13.8 2.16667 13.8V14.2ZM0.541667 14.2H2.16667V13.8H0.541667V14.2ZM-0.2 13.4583C-0.2 13.8679 0.132055 14.2 0.541667 14.2V13.8C0.35297 13.8 0.2 13.647 0.2 13.4583H-0.2ZM-0.2 11.8333V13.4583H0.2V11.8333H-0.2ZM0.541667 11.0917C0.132056 11.0917 -0.2 11.4237 -0.2 11.8333H0.2C0.2 11.6446 0.352969 11.4917 0.541667 11.4917V11.0917ZM1.08333 11.0917H0.541667V11.4917H1.08333V11.0917ZM0.883333 3.70833V11.2917H1.28333V3.70833H0.883333ZM0.541667 3.90833H1.08333V3.50833H0.541667V3.90833ZM-0.2 3.16667C-0.2 3.57628 0.132056 3.90833 0.541667 3.90833V3.50833C0.352969 3.50833 0.2 3.35536 0.2 3.16667H-0.2ZM-0.2 1.54167V3.16667H0.2V1.54167H-0.2ZM0.541667 0.8C0.132055 0.8 -0.2 1.13206 -0.2 1.54167H0.2C0.2 1.35297 0.352969 1.2 0.541667 1.2V0.8ZM2.16667 0.8H0.541667V1.2H2.16667V0.8ZM2.90833 1.54167C2.90833 1.13206 2.57628 0.8 2.16667 0.8V1.2C2.35536 1.2 2.50833 1.35297 2.50833 1.54167H2.90833ZM2.90833 2.08333V1.54167H2.50833V2.08333H2.90833ZM10.2917 1.88333H2.70833V2.28333H10.2917V1.88333ZM10.0917 1.54167V2.08333H10.4917V1.54167H10.0917ZM10.8333 0.8C10.4237 0.8 10.0917 1.13206 10.0917 1.54167H10.4917C10.4917 1.35297 10.6446 1.2 10.8333 1.2V0.8ZM12.4583 0.8H10.8333V1.2H12.4583V0.8ZM13.2 1.54167C13.2 1.13206 12.8679 0.8 12.4583 0.8V1.2C12.647 1.2 12.8 1.35297 12.8 1.54167H13.2ZM13.2 3.16667V1.54167H12.8V3.16667H13.2ZM0.741667 3.16667V1.54167H0.341667V3.16667H0.741667ZM2.16667 2.96667H0.541667V3.36667H2.16667V2.96667ZM1.96667 1.54167V3.16667H2.36667V1.54167H1.96667ZM0.541667 1.74167H2.16667V1.34167H0.541667V1.74167ZM0.541667 13.6583H2.16667V13.2583H0.541667V13.6583ZM0.341667 11.8333V13.4583H0.741667V11.8333H0.341667ZM2.16667 11.6333H0.541667V12.0333H2.16667V11.6333ZM2.36667 13.4583V11.8333H1.96667V13.4583H2.36667ZM10.0917 11.8333V12.375H10.4917V11.8333H10.0917ZM10.8333 11.0917C10.4237 11.0917 10.0917 11.4237 10.0917 11.8333H10.4917C10.4917 11.6446 10.6446 11.4917 10.8333 11.4917V11.0917ZM11.375 11.0917H10.8333V11.4917H11.375V11.0917ZM11.175 3.70833V11.2917H11.575V3.70833H11.175ZM10.8333 3.90833H11.375V3.50833H10.8333V3.90833ZM10.0917 3.16667C10.0917 3.57628 10.4237 3.90833 10.8333 3.90833V3.50833C10.6446 3.50833 10.4917 3.35536 10.4917 3.16667H10.0917ZM10.0917 2.625V3.16667H10.4917V2.625H10.0917ZM2.70833 2.825H10.2917V2.425H2.70833V2.825ZM2.90833 3.16667V2.625H2.50833V3.16667H2.90833ZM2.16667 3.90833C2.57628 3.90833 2.90833 3.57628 2.90833 3.16667H2.50833C2.50833 3.35536 2.35536 3.50833 2.16667 3.50833V3.90833ZM1.625 3.90833H2.16667V3.50833H1.625V3.90833ZM1.825 11.2917V3.70833H1.425V11.2917H1.825ZM2.16667 11.0917H1.625V11.4917H2.16667V11.0917ZM2.90833 11.8333C2.90833 11.4237 2.57628 11.0917 2.16667 11.0917V11.4917C2.35536 11.4917 2.50833 11.6446 2.50833 11.8333H2.90833ZM2.90833 12.375V11.8333H2.50833V12.375H2.90833ZM10.2917 12.175H2.70833V12.575H10.2917V12.175ZM12.6583 13.4583V11.8333H12.2583V13.4583H12.6583ZM10.8333 13.6583H12.4583V13.2583H10.8333V13.6583ZM10.6333 11.8333V13.4583H11.0333V11.8333H10.6333ZM12.4583 11.6333H10.8333V12.0333H12.4583V11.6333ZM11.0333 3.16667V1.54167H10.6333V3.16667H11.0333ZM12.4583 2.96667H10.8333V3.36667H12.4583V2.96667ZM12.2583 1.54167V3.16667H12.6583V1.54167H12.2583ZM10.8333 1.74167H12.4583V1.34167H10.8333V1.74167Z" fill="#F89812"/>
</svg>
