<svg width="16" height="16" viewBox="0 0 16 16" fill="none" xmlns="http://www.w3.org/2000/svg">
<path fill-rule="evenodd" clip-rule="evenodd" d="M14.9996 11.4817V13.5892C15.0012 13.9849 14.8356 14.3628 14.5435 14.6303C14.2514 14.8977 13.8598 15.0299 13.465 14.9943C11.299 14.7594 9.2183 14.0207 7.39023 12.8376C5.68945 11.7589 4.24749 10.3198 3.16674 8.62242C1.97711 6.78969 1.23677 4.70305 1.00572 2.53157C0.970152 2.13877 1.10164 1.74913 1.36807 1.45785C1.6345 1.16656 2.01133 1.00044 2.40651 1.00007H4.51826C5.22489 0.993128 5.82719 1.51008 5.92609 2.20841C6.01522 2.88287 6.18052 3.54511 6.41883 4.18249C6.61222 4.69595 6.48853 5.27477 6.10207 5.66481L5.20809 6.55701C6.21016 8.31581 7.6693 9.77206 9.43159 10.7721L10.3256 9.87994C10.7164 9.49424 11.2963 9.3708 11.8108 9.5638C12.4495 9.80164 13.113 9.96661 13.7888 10.0556C14.4967 10.1552 15.0173 10.7685 14.9996 11.4817Z" stroke="#6A3EE5" stroke-width="1.6" stroke-linecap="round" stroke-linejoin="round"/>
</svg>
