<svg width="22" height="22" viewBox="0 0 22 22" fill="none" xmlns="http://www.w3.org/2000/svg">
<path fill-rule="evenodd" clip-rule="evenodd" d="M17.7273 13.7273C17.4797 14.2883 17.5985 14.9435 18.0273 15.3818L18.0818 15.4364C18.4232 15.7774 18.6151 16.2402 18.6151 16.7227C18.6151 17.2053 18.4232 17.6681 18.0818 18.0091C17.7408 18.3505 17.278 18.5423 16.7955 18.5423C16.3129 18.5423 15.8501 18.3505 15.5091 18.0091L15.4545 17.9545C15.0162 17.5258 14.361 17.407 13.8 17.6545C13.2505 17.8901 12.8933 18.4294 12.8909 19.0273V19.1818C12.8909 20.186 12.0769 21 11.0727 21C10.0686 21 9.25455 20.186 9.25455 19.1818V19.1C9.24014 18.4842 8.85079 17.9399 8.27273 17.7273C7.71174 17.4797 7.05653 17.5985 6.61818 18.0273L6.56364 18.0818C6.2226 18.4232 5.75983 18.6151 5.27727 18.6151C4.79471 18.6151 4.33194 18.4232 3.99091 18.0818C3.6495 17.7408 3.45766 17.278 3.45766 16.7955C3.45766 16.3129 3.6495 15.8501 3.99091 15.5091L4.04545 15.4545C4.47424 15.0162 4.59304 14.361 4.34545 13.8C4.10994 13.2505 3.57058 12.8933 2.97273 12.8909H2.81818C1.81403 12.8909 1 12.0769 1 11.0727C1 10.0686 1.81403 9.25455 2.81818 9.25455H2.9C3.51575 9.24014 4.06012 8.85079 4.27273 8.27273C4.52031 7.71174 4.40151 7.05653 3.97273 6.61818L3.91818 6.56364C3.57677 6.2226 3.38493 5.75983 3.38493 5.27727C3.38493 4.79471 3.57677 4.33194 3.91818 3.99091C4.25922 3.6495 4.72198 3.45766 5.20455 3.45766C5.68711 3.45766 6.14988 3.6495 6.49091 3.99091L6.54545 4.04545C6.98381 4.47424 7.63901 4.59304 8.2 4.34545H8.27273C8.82225 4.10994 9.17943 3.57058 9.18182 2.97273V2.81818C9.18182 1.81403 9.99585 1 11 1C12.0042 1 12.8182 1.81403 12.8182 2.81818V2.9C12.8206 3.49786 13.1778 4.03721 13.7273 4.27273C14.2883 4.52031 14.9435 4.40151 15.3818 3.97273L15.4364 3.91818C15.7774 3.57677 16.2402 3.38493 16.7227 3.38493C17.2053 3.38493 17.6681 3.57677 18.0091 3.91818C18.3505 4.25922 18.5423 4.72198 18.5423 5.20455C18.5423 5.68711 18.3505 6.14988 18.0091 6.49091L17.9545 6.54545C17.5258 6.98381 17.407 7.63901 17.6545 8.2V8.27273C17.8901 8.82225 18.4294 9.17943 19.0273 9.18182H19.1818C20.186 9.18182 21 9.99585 21 11C21 12.0042 20.186 12.8182 19.1818 12.8182H19.1C18.5021 12.8206 17.9628 13.1778 17.7273 13.7273Z" stroke="#A1A1A1" stroke-width="1.6" stroke-linecap="round" stroke-linejoin="round"/>
</svg>
