<svg width="16" height="13" viewBox="0 0 16 13" fill="none" xmlns="http://www.w3.org/2000/svg">
<path fill-rule="evenodd" clip-rule="evenodd" d="M3.8447 9.69402L4.66426 8.66688C4.9678 8.28968 5.47876 8.26357 5.76287 8.60984C6.09244 8.95686 6.1147 9.54471 5.81267 9.92336L3.60949 12.7114C3.30266 13.0962 2.72239 13.0962 2.41582 12.7114L0.212632 9.92336C-0.0891612 9.54471 -0.0671546 8.95657 0.262438 8.60984C0.417749 8.44639 0.61381 8.3657 0.809061 8.3657C1.02837 8.3657 1.24661 8.46717 1.40627 8.66688L2.22583 9.69199V0.929361C2.22583 0.41579 2.58755 0 3.03527 0C3.48299 0 3.8447 0.41579 3.8447 0.929361V9.69402ZM9.17319 1.4H8.18603C7.64001 1.4 7.19887 1.08653 7.19887 0.7C7.19887 0.313469 7.64093 0 8.18603 0H9.17319C9.69052 0 10.1326 0.313469 10.1326 0.7C10.1326 1.08653 9.71828 1.4 9.17319 1.4ZM8.40979 5.15556H11.2421C11.7634 5.15556 12.1862 4.84209 12.1862 4.45556C12.1862 4.06902 11.7634 3.75556 11.2421 3.75556H8.43634C7.91502 3.75556 7.49224 4.06902 7.49224 4.45556C7.49224 4.84209 7.88758 5.15556 8.40979 5.15556ZM8.39195 8.91111H13.0207C13.5318 8.91111 13.9464 8.59764 13.9464 8.21111C13.9464 7.82458 13.5318 7.51111 13.0207 7.51111H8.41798C7.9068 7.51111 7.49224 7.82458 7.49224 8.21111C7.49224 8.59764 7.8799 8.91111 8.39195 8.91111ZM15.0517 11.2667H8.44051C7.91689 11.2667 7.49224 11.5801 7.49224 11.9667C7.49224 12.3532 7.91689 12.6667 8.44051 12.6667H15.0517C15.5754 12.6667 16 12.3532 16 11.9667C16 11.5801 15.5762 11.2667 15.0517 11.2667Z" fill="#D1D1D1"/>
</svg>
